<svg width="1335" height="792" viewBox="0 0 1335 792" fill="none" xmlns="http://www.w3.org/2000/svg">
<rect y="89" width="1200" height="630" fill="white"/>
<path d="M44.9629 404C42.9512 404 41.2747 402.793 39.9336 400.379C38.7266 397.965 38.123 395.752 38.123 393.74C38.123 391.46 38.5924 389.717 39.5312 388.51C40.4701 387.303 42.2135 386.565 44.7617 386.297C52.8086 385.626 59.6484 384.352 65.2812 382.475C71.0482 380.463 73.9316 377.445 73.9316 373.422L74.1328 155.754C74.1328 150.523 72.5905 146.567 69.5059 143.885C66.4212 141.202 63.0013 139.459 59.2461 138.654C55.625 137.85 50.3945 137.045 43.5547 136.24C40.6042 135.972 38.6595 135.436 37.7207 134.631C36.7819 133.692 36.3125 131.747 36.3125 128.797C36.3125 126.785 36.916 124.572 38.123 122.158C39.4642 119.744 41.1406 118.537 43.1523 118.537H88.0137C96.597 118.537 108.131 118.135 122.615 117.33C137.368 116.525 149.438 116.123 158.826 116.123C175.725 116.123 191.349 119.007 205.699 124.773C220.184 130.406 231.919 139.593 240.904 152.334C249.89 164.941 254.383 181.102 254.383 200.816C254.383 218.52 249.957 234.345 241.105 248.293C232.254 262.107 219.915 272.903 204.09 280.682C188.264 288.46 170.427 292.35 150.578 292.35H115.574V366.783C115.574 372.014 117.653 376.037 121.811 378.854C126.102 381.536 130.93 383.346 136.295 384.285C141.66 385.09 148.298 385.76 156.211 386.297C159.161 386.565 161.106 387.169 162.045 388.107C162.984 388.912 163.453 390.79 163.453 393.74C163.453 395.752 162.783 397.965 161.441 400.379C160.234 402.793 158.625 404 156.613 404H44.9629ZM149.975 275.049C156.412 275.049 164.258 272.769 173.512 268.209C182.766 263.515 190.88 255.938 197.854 245.477C204.962 234.882 208.516 221.403 208.516 205.041C208.516 179.559 202.279 161.387 189.807 150.523C177.468 139.526 161.978 134.027 143.336 134.027H115.775L115.574 275.049H149.975Z" fill="black"/>
<path d="M326.667 367.441C297.202 359.785 277.137 345.011 266.475 323.118C255.812 301.225 254.747 273.858 263.28 241.018C268.71 220.119 277.341 203.17 289.171 190.17C301.165 177.074 314.859 168.369 330.252 164.054C345.646 159.74 361.261 159.64 377.097 163.755C400.332 169.792 416.338 180.186 425.114 194.938C433.925 209.56 437.413 228.133 435.579 250.659C434.843 259.891 432.822 270.867 429.517 283.588L305.294 251.311C300.365 270.815 298.813 287.456 300.637 301.232C302.462 315.009 306.673 325.733 313.27 333.406C319.868 341.079 327.775 346.112 336.991 348.507C346.986 351.104 356.598 351.176 365.826 348.724C375.184 346.306 383.002 341.548 389.281 334.449C389.478 334.223 389.791 333.82 390.219 333.238C390.811 332.56 391.335 332.142 391.792 331.984C392.379 331.859 393.045 331.963 393.79 332.295L402.362 339.303C403.655 340.193 404.166 341.157 403.896 342.196C403.761 342.715 403.102 343.652 401.919 345.008C392.647 355.624 381.714 363.037 369.119 367.247C356.654 371.491 342.503 371.556 326.667 367.441ZM390.946 254.443C396.511 233.026 397.381 216.346 393.555 204.405C389.859 192.498 382.689 185.162 372.045 182.396C361.791 179.732 353.191 179.23 346.248 180.889C339.337 182.42 332.868 187.321 326.838 195.592C320.939 203.898 315.338 216.923 310.034 234.667L390.946 254.443Z" fill="black"/>
<path d="M571.791 543.26C549.402 522.63 538.66 500.148 539.564 475.813C540.467 451.479 552.416 426.835 575.409 401.882C590.04 386.003 605.636 375.116 622.194 369.219C638.942 363.314 655.122 362.083 670.733 365.526C686.345 368.969 700.167 376.235 712.199 387.322C729.854 403.59 739.079 420.297 739.874 437.444C740.761 454.492 735.091 472.519 722.865 491.527C717.869 499.324 710.917 508.056 702.011 517.721L607.625 430.748C594.091 445.633 584.885 459.582 580.007 472.594C575.129 485.607 573.794 497.051 576.001 506.926C578.207 516.802 582.812 524.966 589.815 531.419C597.409 538.417 605.854 543.007 615.15 545.189C624.544 547.463 633.682 546.947 642.564 543.642C642.844 543.536 643.31 543.327 643.962 543.015C644.803 542.696 645.462 542.574 645.94 542.65C646.516 542.816 647.055 543.221 647.556 543.865L651.817 554.084C652.539 555.478 652.536 556.569 651.809 557.358C651.445 557.753 650.422 558.269 648.74 558.908C635.562 563.907 622.426 565.298 609.332 563.081C596.337 560.955 583.823 554.348 571.791 543.26ZM681.71 473.847C696.705 457.574 705.327 443.269 707.575 430.934C709.922 418.689 707.052 408.84 698.964 401.388C691.173 394.208 683.823 389.716 676.916 387.91C670.099 386.006 662.084 387.282 652.87 391.74C643.754 396.289 632.679 405.141 619.644 418.298L681.71 473.847Z" fill="black"/>
<path d="M597.228 601.817C596.231 599.916 596.225 598.027 597.209 596.148C598.312 594.208 599.695 592.801 601.358 591.93C603.377 590.871 605.14 590.478 606.645 590.749C608.149 591.02 609.612 592.222 611.033 594.355C619.561 607.449 626.973 612.347 633.269 609.048L746.594 549.655C752.177 546.729 755.924 543.478 757.836 539.903C759.747 536.327 760.462 532.924 759.98 529.694C759.499 526.463 758.463 522.464 756.872 517.695C756.679 517.039 756.331 516.086 755.828 514.836C755.443 513.523 755.151 512.389 754.953 511.433C754.8 509.696 755.071 508.191 755.766 506.918C756.462 505.645 757.82 504.48 759.839 503.421C761.502 502.55 763.383 502.094 765.482 502.054C767.699 501.951 769.179 502.463 769.92 503.589C777.787 516.576 787.563 533.786 799.25 555.219C799.873 556.407 799.93 557.816 799.421 559.445C798.912 561.075 797.413 562.693 794.924 564.3L770.157 577.28C784.759 578.561 796.953 581.028 806.741 584.681C816.529 588.333 823.945 594.97 828.987 604.592C834.403 614.927 835.76 623.15 833.057 629.26C830.417 635.489 825.355 640.565 817.871 644.487C813.713 646.666 809.465 647.227 805.125 646.17C800.786 645.113 796.879 643.148 793.405 640.275C789.993 637.521 787.571 634.777 786.139 632.045L798.65 603.912C796.844 600.467 793.517 597.441 788.668 594.834C783.82 592.227 778.204 590.324 771.823 589.126C765.503 588.047 759.201 587.868 752.916 588.587L656.518 639.108C651.767 641.598 649.012 645.01 648.255 649.344C647.56 653.796 647.856 658.26 649.141 662.735C650.545 667.147 652.597 672.507 655.296 678.814C656.429 681.552 656.797 683.554 656.401 684.822C656.124 686.027 654.679 687.314 652.065 688.684C650.402 689.555 648.459 689.892 646.236 689.695C644.131 689.435 642.581 688.355 641.585 686.454L597.228 601.817Z" fill="black"/>
<path d="M441.767 433.7C426.695 423.912 417.919 413.416 415.441 402.212C413.147 390.968 416.822 377.923 426.463 363.076L501.404 247.672L482.001 235.072C480.837 234.156 480.226 232.88 480.17 231.244C480.225 229.681 480.728 228.168 481.677 226.706C483.065 224.569 484.591 223.081 486.255 222.243C488.031 221.477 489.65 221.569 491.113 222.519L492.741 223.336C499.888 226.858 506.641 228.525 513 228.337C519.432 228.036 526.377 225.59 533.836 220.999C541.295 216.408 550.08 209.16 560.19 199.254C561.55 197.899 562.939 197.361 564.356 197.642C565.846 197.81 567.715 198.624 569.965 200.085C572.102 201.473 573.269 202.63 573.466 203.558C573.737 204.373 573.324 205.624 572.228 207.311L542.318 253.372L592.09 285.693C593.254 286.609 593.808 287.848 593.753 289.411C593.81 291.047 593.364 292.596 592.414 294.059C590.88 296.421 589.023 298.173 586.842 299.315C584.773 300.531 583.12 300.736 581.883 299.933L532.786 268.05L465.843 371.138C457.443 384.073 453.363 394.296 453.602 401.807C453.842 409.319 456.605 414.791 461.891 418.224C466.728 421.365 471.165 423.766 475.203 425.429C479.313 426.979 482.842 428.071 485.788 428.705C488.808 429.226 493.261 429.88 499.148 430.664C500.134 435.302 499.855 439.918 498.311 444.512C494.713 445.374 489.377 445.587 482.304 445.152C475.416 444.677 468.222 443.443 460.721 441.451C453.259 439.643 446.941 437.06 441.767 433.7Z" fill="black"/>
<path d="M1039.02 486.924C1048.39 421.657 1056.45 357.749 1063.17 295.201C1063.7 290.595 1064.56 282.946 1065.77 272.253C1067.02 261.398 1068.01 254.344 1068.74 251.091C1070.12 244.911 1072.81 239.367 1076.79 234.459C1080.94 229.569 1085.83 225.921 1091.46 223.516C1097.13 220.949 1102.94 219.979 1108.91 220.606C1114.88 221.233 1120 223.353 1124.28 226.966C1128.6 230.416 1131.58 234.891 1133.23 240.391C1135.05 245.909 1135.26 251.758 1133.88 257.938C1133.29 260.54 1131.7 265.366 1129.1 272.417C1126.67 279.486 1124.82 284.702 1123.56 288.065C1112.67 317.716 1102.09 347.898 1091.81 378.612C1081.69 409.343 1070.73 446.144 1058.91 489.014L1039.02 486.924ZM1024.25 598.232C1017.78 597.552 1012.26 595.307 1007.69 591.497C1003.08 587.85 999.797 583.177 997.851 577.479C996.07 571.799 995.855 565.95 997.204 559.933C998.553 553.916 1001.28 548.543 1005.4 543.815C1009.68 539.105 1014.8 535.564 1020.76 533.195C1026.72 530.825 1032.93 529.98 1039.4 530.659C1045.86 531.338 1051.42 533.421 1056.06 536.905C1060.71 540.39 1064.05 544.819 1066.06 550.191C1068.08 555.564 1068.42 561.259 1067.07 567.276C1065.72 573.293 1062.87 578.82 1058.52 583.856C1054.16 588.891 1048.99 592.676 1042.99 595.208C1036.96 597.903 1030.71 598.911 1024.25 598.232Z" fill="black"/>
<path d="M978.39 509.318C936.071 458.754 893.88 410.083 851.818 363.303C848.739 359.838 843.624 354.084 836.473 346.043C829.226 337.865 824.635 332.419 822.701 329.704C819.027 324.546 816.693 318.845 815.701 312.601C814.833 306.246 815.383 300.171 817.353 294.375C819.225 288.444 822.387 283.467 826.839 279.444C831.291 275.422 836.291 273.024 841.838 272.251C847.288 271.342 852.612 272.11 857.808 274.555C863.128 276.887 867.626 280.633 871.3 285.791C872.847 287.963 875.377 292.371 878.89 299.014C882.526 305.546 885.174 310.404 886.834 313.59C901.632 341.497 917.028 369.532 933.024 397.694C949.144 425.745 969.212 458.483 993.229 495.909L978.39 509.318ZM1051.37 594.65C1046.55 599.008 1041.19 601.617 1035.3 602.478C1029.51 603.474 1023.84 602.794 1018.3 600.438C1012.88 597.969 1008.38 594.224 1004.8 589.201C1001.23 584.178 999.052 578.557 998.281 572.338C997.633 566.007 998.417 559.832 1000.63 553.813C1002.85 547.793 1006.37 542.605 1011.19 538.247C1016.02 533.889 1021.28 531.144 1026.97 530.012C1032.67 528.88 1038.19 529.357 1043.54 531.442C1048.89 533.527 1053.35 537.081 1056.93 542.103C1060.51 547.126 1062.72 552.939 1063.56 559.541C1064.4 566.144 1063.76 572.523 1061.64 578.678C1059.62 584.968 1056.19 590.293 1051.37 594.65Z" fill="black"/>
</svg>
