<svg width="92" height="98" viewBox="0 0 92 98" fill="none" xmlns="http://www.w3.org/2000/svg">
<path d="M6.51562 87C6.04688 87 5.65625 86.7188 5.34375 86.1563C5.0625 85.5938 4.92188 85.0781 4.92188 84.6094C4.92188 84.0781 5.03125 83.6719 5.25 83.3906C5.46875 83.1094 5.875 82.9375 6.46875 82.875C8.34375 82.7188 9.9375 82.4219 11.25 81.9844C12.5938 81.5156 13.2656 80.8125 13.2656 79.875L13.3125 29.1563C13.3125 27.9375 12.9531 27.0156 12.2344 26.3906C11.5156 25.7656 10.7188 25.3594 9.84375 25.1719C9 24.9844 7.78125 24.7969 6.1875 24.6094C5.5 24.5469 5.04688 24.4219 4.82812 24.2344C4.60938 24.0156 4.5 23.5625 4.5 22.875C4.5 22.4063 4.64062 21.8906 4.92188 21.3281C5.23438 20.7656 5.625 20.4844 6.09375 20.4844H16.5469C18.5469 20.4844 21.2344 20.3906 24.6094 20.2031C28.0469 20.0156 30.8594 19.9219 33.0469 19.9219C36.9844 19.9219 40.625 20.5938 43.9688 21.9375C47.3438 23.25 50.0781 25.3906 52.1719 28.3594C54.2656 31.2969 55.3125 35.0625 55.3125 39.6563C55.3125 43.7813 54.2812 47.4688 52.2188 50.7188C50.1562 53.9375 47.2812 56.4531 43.5938 58.2656C39.9062 60.0781 35.75 60.9844 31.125 60.9844H22.9688V78.3281C22.9688 79.5469 23.4531 80.4844 24.4219 81.1406C25.4219 81.7656 26.5469 82.1875 27.7969 82.4063C29.0469 82.5938 30.5938 82.75 32.4375 82.875C33.125 82.9375 33.5781 83.0781 33.7969 83.2969C34.0156 83.4844 34.125 83.9219 34.125 84.6094C34.125 85.0781 33.9688 85.5938 33.6562 86.1563C33.375 86.7188 33 87 32.5312 87H6.51562ZM30.9844 56.9531C32.4844 56.9531 34.3125 56.4219 36.4688 55.3594C38.625 54.2656 40.5156 52.5 42.1406 50.0625C43.7969 47.5938 44.625 44.4531 44.625 40.6406C44.625 34.7031 43.1719 30.4688 40.2656 27.9375C37.3906 25.375 33.7812 24.0938 29.4375 24.0938H23.0156L22.9688 56.9531H30.9844Z" fill="white"/>
<path d="M61.084 68.5497C62.8415 56.3122 64.351 44.3295 65.6125 32.6017C65.7107 31.7381 65.8732 30.3039 66.1 28.299C66.3337 26.2636 66.5189 24.9409 66.6556 24.3311C66.9154 23.1723 67.4188 22.1328 68.1659 21.2126C68.9441 20.2956 69.8609 19.6117 70.9164 19.1608C71.9786 18.6794 73.0692 18.4975 74.188 18.6151C75.3068 18.7327 76.2675 19.1302 77.07 19.8076C77.8793 20.4544 78.4387 21.2935 78.7483 22.3248C79.0889 23.3594 79.1294 24.4561 78.8696 25.6148C78.7602 26.1027 78.4619 27.0077 77.9746 28.3298C77.5184 29.6551 77.1719 30.6331 76.9351 31.2637C74.8933 36.8232 72.9088 42.4824 70.9814 48.2412C69.0851 54.0033 67.0292 60.9035 64.8134 68.9417L61.084 68.5497ZM58.3135 89.4199C57.1015 89.2925 56.0665 88.8716 55.2087 88.1573C54.3441 87.4734 53.7294 86.5972 53.3645 85.5289C53.0306 84.4638 52.9902 83.3672 53.2432 82.239C53.4961 81.1107 54.0083 80.1033 54.7796 79.2169C55.5821 78.3336 56.5421 77.6699 57.6596 77.2255C58.7772 76.7812 59.942 76.6227 61.1541 76.7501C62.3662 76.8775 63.408 77.2679 64.2794 77.9213C65.1509 78.5747 65.7759 79.4051 66.1545 80.4124C66.533 81.4198 66.5958 82.4875 66.3429 83.6158C66.0899 84.744 65.5554 85.7803 64.7393 86.7245C63.9232 87.6687 62.9529 88.3782 61.8285 88.853C60.6973 89.3584 59.5256 89.5473 58.3135 89.4199Z" fill="white"/>
</svg>
